<svg width="590" height="966" viewBox="0 0 590 966" fill="none" xmlns="http://www.w3.org/2000/svg">
<path d="M12 539V259C12 192 35 134.5 83.5 87.5001C127.3 45.6001 186 21.0001 245.5 11.2001C262.7 8.40008 283.5 6.20008 301 6.50008V274H582C582 274 582.3 292 582 332.5C580.9 392.5 560.8 442.3 516.7 483.5C478.8 519 433.9 534.9 382.9 538.7C369 539.7 355.6 539.6 341.7 539.5L301 539H12Z" fill="#075BEC"/>
<path d="M301 274H582C582 274 582.3 292 582 332.5C580.9 392.5 560.8 442.3 516.7 483.5C478.8 519 433.9 534.9 382.9 538.7C369 539.7 355.6 539.6 341.7 539.5L301 539V274Z" fill="#00EFD3"/>
<path d="M12 539C12.9 528 19.3 509.5 22.7 498.7C39.9 443.8 73.3 390.4 116.2 351.8C156.9 315.3 206.5 290.2 260 279.2C270.5 276.9 290.4 273.4 301 274V539H12Z" fill="#00BBD2"/>
<path d="M11.9999 539H301C301 558.5 301.8 578 302.4 597.2C302.6 625.4 313.8 652.1 339.7 666.3C369.7 682.7 397.8 694.3 423.9 718.3C475.9 766 485.2 848.7 435.8 901.9C404.7 935.5 357.7 947.9 313.3 949.9C230.8 952.5 153.2 922.8 92.3999 867C72.9999 849 56.3999 828.1 43.2999 805C24.5999 771.5 13.9999 734 12.3999 695.5C11.6999 682.3 11.9999 665.6 11.9999 652.3V539Z" fill="#8A3AFB"/>
</svg>
